<?xml version="1.0" encoding="UTF-8"?>
<!--
  ITD LAB — Stacked lockup v4
  =====================================================================
  Gear+FFT above, ITD LAB wordmark below. Use for square placements.
-->
<svg xmlns="http://www.w3.org/2000/svg"
     xmlns:inkscape="http://www.inkscape.org/namespaces/inkscape"
     viewBox="0 0 600 700"
     width="600" height="700">

  <defs>
    <linearGradient id="specGrad" x1="0" y1="0" x2="1" y2="0">
      <stop offset="0%"   stop-color="#06B6D4"/>
      <stop offset="100%" stop-color="#3B82F6"/>
    </linearGradient>
    <linearGradient id="titleGrad" x1="0" y1="0" x2="1" y2="0">
      <stop offset="0%"   stop-color="#0B1B3A"/>
      <stop offset="100%" stop-color="#0EA5E9"/>
    </linearGradient>
  </defs>

  <!-- Gear bore center (214, 214) → stacked layout center (300, 210); translate by (86, -4) -->
  <g id="mark" inkscape:label="mark" transform="translate(86, -4)">

    <g id="machinery" inkscape:label="machinery">
      <path fill="#446785" d="M356.7,209.4c-0.2-5.5-0.7-10.9-1.5-16.2l-28.2-4.7l-9.6-26.7l18.8-21.6c-5.7-9.5-12.5-18.2-20.2-26.1
        l-25.6,12.8L267,111.1l2.5-28.5c-9.7-4.1-20-7.2-30.7-9L225.6,99l-28.4,0.7l-14.6-24.7c-10.9,2.5-21.3,6.2-31.1,11l4.2,28.3
        l-22.5,17.2l-26.3-11.3c-7.2,8.3-13.5,17.3-18.7,27.2l20,20.4l-8.1,27.2l-27.9,6.3c-0.5,5.6-0.7,11.4-0.5,17.2
        c0.2,5.3,0.7,10.6,1.4,15.7l28.2,4.8l9.5,26.7l-18.9,21.5c5.7,9.5,12.5,18.3,20.1,26.2l25.6-12.8l23.4,16l-2.7,28.5
        c10,4.2,20.6,7.4,31.6,9.3l13.2-25.4l28.4-0.8l14.6,24.6c10.9-2.5,21.3-6.3,31.1-11.1l-4.3-28.3l22.5-17.3l26.3,11.3
        c7.2-8.3,13.5-17.4,18.6-27.2l-20.1-20.4l8-27.3l27.9-6.3C356.7,220.7,356.9,215.1,356.7,209.4z M256.4,261.9
        c-26.5,23.2-66.8,20.8-90.2-5.8c-23.2-26.6-20.6-66.9,5.9-90.1c26.4-23.4,66.8-20.8,90.1,5.7
        C285.6,198.3,282.9,238.7,256.4,261.9z"/>
      <path fill="#D8D9DA" d="M284.5,152.3c-34.1-38.8-93.2-42.7-132-8.6c-38.8,34.1-42.6,93.2-8.4,132c34.1,38.8,93.2,42.6,131.9,8.5
        C314.7,250.1,318.5,191,284.5,152.3z M269.9,277.3c-35,30.7-88.3,27.3-119-7.7c-30.8-35-27.3-88.3,7.6-119.1
        c35-30.7,88.4-27.2,119.1,7.7C308.3,193.3,304.9,246.6,269.9,277.3z"/>
      <path fill="#2C5672" d="M160.2,316l0.9,0.6l-2.2,28.3l-0.5,0.2c10,4.2,20.6,7.4,31.6,9.3l-0.3-0.5l13.5-25l28.4-0.8l14.9,24.2
        l-0.3,0.5c10.9-2.5,21.3-6.3,31.1-11.1l-0.5-0.2l-3.8-28.1l22.5-17.3l26.3,10.8l0,0.5c7.2-8.3,13.5-17.4,18.6-27.2l-0.5,0.1
        l-19.6-20.5l8-27.3l27.6-6.7l0.4,0.4c0.5-5.5,0.6-11.1,0.4-16.8c-0.2-5.5-0.7-10.9-1.5-16.2l-0.3,0.4l-7.9-1.4
        C294,268.6,219.4,301.7,160.2,316z"/>
      <path fill="#B1B2B4" d="M275.9,284.2c13.3-11.7,22.5-26.3,27.5-42.1c-5.2,4.7-10.5,9.2-15.8,13.4c-4.5,8-10.4,15.4-17.7,21.8
        c-15.9,14-35.6,20.9-55.3,20.9c-6.4,2.7-12.7,5.1-19,7.3C223.2,311.2,253.1,304.3,275.9,284.2z"/>
      <path fill="#5582A0" d="M156.7,108.1l-2.7-23c0,0,13.6-7.2,23.9-8.9C178,76.2,161.2,82.4,156.7,108.1z"/>
    </g>

    <g id="spectrum" inkscape:label="spectrum">
      <g id="refs" stroke="#0EA5E9" stroke-width="0.7" stroke-dasharray="2 2.5" opacity="0.7">
        <line x1="172" y1="178" x2="172" y2="252"/>
        <line x1="186" y1="178" x2="186" y2="252"/>
        <line x1="200" y1="178" x2="200" y2="252"/>
        <line x1="228" y1="178" x2="228" y2="252"/>
        <line x1="242" y1="178" x2="242" y2="252"/>
        <line x1="256" y1="178" x2="256" y2="252"/>
      </g>

      <line x1="214" y1="168" x2="214" y2="252"
            stroke="#F59E0B" stroke-width="1.1" stroke-dasharray="3.5 2" opacity="0.95"/>
      <text x="214" y="164" text-anchor="middle"
            font-family="Arial, sans-serif" font-weight="700" font-size="10"
            fill="#F59E0B">GMF</text>

      <line x1="168" y1="252" x2="260" y2="252"
            stroke="#0B1B3A" stroke-width="0.8" opacity="0.6"/>

      <path fill="none" stroke="url(#specGrad)"
            stroke-width="1.4" stroke-linejoin="round" stroke-linecap="round"
            d="M 168 252
               L 170 250 L 172 238 L 174 254
               L 176 250 L 178 252 L 180 254 L 182 250 L 184 252
               L 186 232 L 188 254
               L 190 250 L 192 252 L 194 254 L 196 250 L 198 252
               L 200 224 L 202 254
               L 204 250 L 206 252 L 208 254 L 210 250 L 212 252
               L 214 185 L 216 254
               L 218 250 L 220 252 L 222 254 L 224 250 L 226 252
               L 228 222 L 230 254
               L 232 250 L 234 252 L 236 254 L 238 250 L 240 252
               L 242 230 L 244 254
               L 246 250 L 248 252 L 250 254 L 252 250 L 254 252
               L 256 236 L 258 254
               L 260 252"/>

      <g id="ai-marker">
        <circle cx="214" cy="185" r="7" fill="none" stroke="#F59E0B" stroke-width="0.8" opacity="0.5"/>
        <circle cx="214" cy="185" r="4" fill="none" stroke="#FCD34D" stroke-width="1.3"/>
        <circle cx="214" cy="185" r="1.7" fill="#F59E0B"/>
      </g>
    </g>
  </g>

  <!-- =================== WORDMARK =================== -->
  <g id="wordmark" inkscape:label="wordmark">
    <line x1="180" y1="465" x2="420" y2="465"
          stroke="#0EA5E9" stroke-width="2" opacity="0.5"/>

    <text x="300" y="550" text-anchor="middle"
          font-family="Arial, sans-serif" font-weight="700" font-size="62" letter-spacing="3"
          fill="url(#titleGrad)">ITD LAB</text>

    <text x="300" y="595" text-anchor="middle"
          font-family="Arial, sans-serif" font-weight="400" font-size="18" letter-spacing="4"
          fill="#0B1B3A" opacity="0.75">AI-DRIVEN VIBRATION DIAGNOSTICS</text>

    <text x="300" y="630" text-anchor="middle"
          font-family="Arial, sans-serif" font-weight="400" font-style="italic" font-size="16" letter-spacing="1"
          fill="#0EA5E9">Phòng thí nghiệm Chẩn đoán Rung động bằng AI</text>
  </g>
</svg>
